<svg width="182" height="100" viewBox="0 0 182 100" fill="none" xmlns="http://www.w3.org/2000/svg">
<path fill-rule="evenodd" clip-rule="evenodd" d="M104.725 18.4644L95.1753 2.58475C93.6577 0.0612694 90.3818 -0.754171 87.8583 0.763407L58.6575 18.3243L49.1923 2.58494C47.6747 0.0614561 44.3988 -0.754001 41.8753 0.763563L2.58477 24.392C0.0612869 25.9095 -0.754172 29.1855 0.763392 31.7089L40.2776 97.4153C41.7952 99.9387 45.0711 100.754 47.5946 99.2366L76.7957 81.6758L86.2611 97.4151C87.7787 99.9386 91.0546 100.754 93.5781 99.2364L123.012 81.5355L132.562 97.4151C134.079 99.9386 137.355 100.754 139.878 99.2364L179.169 75.6078C181.692 74.0902 182.508 70.8143 180.99 68.2908L141.476 2.58475C139.958 0.0612694 136.682 -0.754171 134.159 0.763407L104.725 18.4644Z" fill="#E0382D"/>
</svg>
